<?xml version="1.0" encoding="utf-8"?>
<svg viewBox="0 0 24 24" stroke="#636f7a" stroke-width="1" stroke-linecap="square" stroke-linejoin="miter" fill="none" color="#636f7a" xmlns="http://www.w3.org/2000/svg">
  <path d="M6.5,18 C4.01471863,18 2,15.9852814 2,13.5 C2,11.0147186 4.01471863,9 6.5,9 C6.9194849,9 7.3255638,9.05739789 7.71081142,9.16476838 C8.72277,7.28089089 10.711801,6 13,6 C15.9817502,6 18.4554927,8.17503894 18.9211951,11.0250841 C20.6555928,11.2331085 22,12.7095527 22,14.5 C22,16.4329966 20.4329966,18 18.5,18 L6.5,18 Z" transform="matrix(0.9999999999999999, 0, 0, 0.9999999999999999, 0, 0)"/>
  <path d="M 12 10 L 12 14" style="transform-origin: 12px 12px;" transform="matrix(-1, 0, 0, -1, 0, 0)"/>
  <polyline points="10 15 12 13 14 15 14 15" style="transform-origin: 12px 14px;" transform="matrix(-1, 0, 0, -1, 0, 0)"/>
</svg>
